<svg xmlns="http://www.w3.org/2000/svg" xmlns:xlink="http://www.w3.org/1999/xlink" width="1080" height="839" viewBox="0 0 1080 839">
    <defs>
        <linearGradient id="q34urz3dvb" x1="100%" x2="0%" y1="19.825%" y2="42.698%">
            <stop offset="0%" stop-color="#298066" stop-opacity=".17"/>
            <stop offset="100%" stop-color="#136785" stop-opacity=".183"/>
        </linearGradient>
        <path id="r8jp33ag3a" d="M0 0H1080V839H0z"/>
    </defs>
    <g fill="none" fill-rule="evenodd">
        <g>
            <g transform="translate(-200) translate(200)">
                <mask id="yove0tofrc" fill="#fff">
                    <use xlink:href="#r8jp33ag3a"/>
                </mask>
                <use fill="url(#q34urz3dvb)" xlink:href="#r8jp33ag3a"/>
                <path fill="#136785" fill-rule="nonzero" d="M962.816 45.501c1.03.961 2.484 10.01 4.361 27.145 1.891 17.268 3.01 30.113 3.353 38.537 2.407 56.857-2.407 97.078-14.443 120.664-13.068 24.849-28.027 37.273-44.878 37.273-8.94 0-16.764-4.528-23.47-13.583-6.706-9.055-11.262-22.848-13.67-41.38-2.407-21.058-.516-43.38 5.674-66.965-21.32 21.48-37.483 43.907-48.488 67.282-11.004 23.374-16.764 44.854-17.28 64.438-.516 19.584 1.891 38.326 7.221 56.226s12.552 33.061 21.665 45.486c9.114 12.424 19 22.006 29.66 28.744.345 0 .689.21 1.032.632-77.375-10.108-127.754-46.117-151.138-108.03C713.473 278.808 709 255.644 709 232.479c-.34-61.069 29.233-115.399 88.726-162.991 23.04-18.531 41.439-39.59 55.194-63.175 13.756-23.585 22.181-45.591 25.276-66.018 3.095-20.426 4.556-39.59 4.385-57.489-.172-17.9-1.634-31.903-4.385-42.011L874.069-175c4.47 1.264 10.403 3.475 17.797 6.633 7.393 3.16 21.492 10.424 42.298 21.796 20.805 11.371 40.493 24.111 59.063 38.22 18.57 14.11 38.429 33.378 59.578 57.806 21.15 24.427 38.43 50.75 51.841 78.968 14.444 30.746 23.987 64.017 28.629 99.817 4.643 35.8 3.353 70.756-3.869 104.87-8.94 42.117-30.692 80.759-65.252 115.926-34.561 35.168-76.086 55.489-124.574 60.964 19.602-10.95 36.452-25.06 50.552-42.327 14.1-17.268 24.845-35.905 32.24-55.91 7.393-20.006 12.465-40.432 15.216-61.28 2.751-20.848 3.267-42.011 1.548-63.49-1.376-16.426-4.987-32.536-10.833-48.33-5.846-15.793-12.38-29.06-19.601-39.8-7.222-10.74-14.272-20.32-21.15-28.744-6.877-8.424-12.723-14.53-17.538-18.32l-7.198-6.298z" mask="url(#yove0tofrc)" opacity=".03"/>
                <path fill="#136785" fill-rule="nonzero" d="M95.205 675.44c.517.48 1.245 5.012 2.186 13.595.948 8.648 1.508 15.082 1.68 19.3 1.207 28.478-1.206 48.623-7.238 60.436-6.55 12.446-14.047 18.669-22.492 18.669-4.48 0-8.401-2.268-11.762-6.803-3.361-4.536-5.645-11.444-6.851-20.726-1.206-10.547-.259-21.727 2.844-33.54-10.686 10.759-18.786 21.991-24.301 33.699-5.515 11.707-8.402 22.465-8.66 32.274-.26 9.809.947 19.196 3.619 28.16 2.671 8.966 6.29 16.56 10.857 22.783 4.568 6.223 9.523 11.021 14.865 14.397.173 0 .345.105.517.316-38.778-5.063-64.026-23.098-75.746-54.107C-29.758 792.291-32 780.69-32 769.087c-.17-30.586 14.65-57.798 44.467-81.635 11.547-9.281 20.768-19.828 27.662-31.641 6.894-11.813 11.116-22.835 12.667-33.065 1.551-10.231 2.284-19.829 2.198-28.794-.087-8.965-.82-15.979-2.198-21.042L50.728 565c2.24.633 5.213 1.74 8.919 3.322 3.705 1.582 10.772 5.221 21.199 10.917 10.427 5.695 20.293 12.076 29.6 19.143 9.307 7.066 19.26 16.717 29.86 28.952 10.599 12.234 19.259 25.418 25.98 39.552 7.24 15.398 12.022 32.063 14.348 49.993 2.327 17.93 1.68 35.438-1.939 52.525-4.48 21.094-15.381 40.448-32.702 58.062C128.672 845.08 107.86 855.258 83.56 858c9.824-5.485 18.269-12.551 25.335-21.2 7.066-8.648 12.452-17.983 16.157-28.002 3.706-10.02 6.248-20.251 7.627-30.693 1.379-10.441 1.637-21.041.775-31.8-.689-8.226-2.499-16.295-5.429-24.205-2.93-7.91-6.204-14.555-9.823-19.934-3.62-5.38-7.153-10.178-10.6-14.397-3.447-4.219-6.376-7.278-8.79-9.176l-3.607-3.154z" mask="url(#yove0tofrc)" opacity=".1"/>
            </g>
        </g>
    </g>
</svg>
